<mxfile host="app.diagrams.net" agent="Mozilla/5.0 (Windows NT 10.0; Win64; x64) AppleWebKit/537.36 (KHTML, like Gecko) Chrome/134.0.0.0 Safari/537.36" version="26.0.16">
  <diagram name="Página-1" id="2ITeXRkAVdonGwUGqWkM">
    <mxGraphModel dx="2047" dy="2988" grid="1" gridSize="10" guides="1" tooltips="1" connect="1" arrows="1" fold="1" page="1" pageScale="1" pageWidth="827" pageHeight="1169" math="0" shadow="0">
      <root>
        <mxCell id="0" />
        <mxCell id="1" parent="0" />
        <mxCell id="TE3HOqjZIv5zywbFu5FG-13" value="" style="edgeStyle=orthogonalEdgeStyle;rounded=0;orthogonalLoop=1;jettySize=auto;html=1;" edge="1" parent="1" source="TE3HOqjZIv5zywbFu5FG-2" target="TE3HOqjZIv5zywbFu5FG-3">
          <mxGeometry relative="1" as="geometry" />
        </mxCell>
        <mxCell id="TE3HOqjZIv5zywbFu5FG-2" value="&lt;h1 style=&quot;font-size: 20px;&quot;&gt;Inicio&lt;/h1&gt;" style="ellipse;whiteSpace=wrap;html=1;fontSize=20;fontStyle=1;fillColor=#d5e8d4;strokeColor=#82b366;" vertex="1" parent="1">
          <mxGeometry x="-553" y="-1130" width="120" height="80" as="geometry" />
        </mxCell>
        <mxCell id="TE3HOqjZIv5zywbFu5FG-14" value="" style="edgeStyle=orthogonalEdgeStyle;rounded=0;orthogonalLoop=1;jettySize=auto;html=1;" edge="1" parent="1" source="TE3HOqjZIv5zywbFu5FG-3" target="TE3HOqjZIv5zywbFu5FG-12">
          <mxGeometry relative="1" as="geometry" />
        </mxCell>
        <mxCell id="TE3HOqjZIv5zywbFu5FG-15" value="" style="edgeStyle=orthogonalEdgeStyle;rounded=0;orthogonalLoop=1;jettySize=auto;html=1;" edge="1" parent="1" source="TE3HOqjZIv5zywbFu5FG-3" target="TE3HOqjZIv5zywbFu5FG-4">
          <mxGeometry relative="1" as="geometry" />
        </mxCell>
        <mxCell id="TE3HOqjZIv5zywbFu5FG-16" value="" style="edgeStyle=orthogonalEdgeStyle;rounded=0;orthogonalLoop=1;jettySize=auto;html=1;" edge="1" parent="1" source="TE3HOqjZIv5zywbFu5FG-3" target="TE3HOqjZIv5zywbFu5FG-5">
          <mxGeometry relative="1" as="geometry" />
        </mxCell>
        <mxCell id="TE3HOqjZIv5zywbFu5FG-3" value="Tela de listagem" style="rhombus;whiteSpace=wrap;html=1;fontStyle=1;fillColor=#fff2cc;strokeColor=#d6b656;" vertex="1" parent="1">
          <mxGeometry x="-393" y="-1130" width="80" height="80" as="geometry" />
        </mxCell>
        <mxCell id="TE3HOqjZIv5zywbFu5FG-72" value="" style="edgeStyle=orthogonalEdgeStyle;rounded=0;orthogonalLoop=1;jettySize=auto;html=1;" edge="1" parent="1" source="TE3HOqjZIv5zywbFu5FG-4" target="TE3HOqjZIv5zywbFu5FG-71">
          <mxGeometry relative="1" as="geometry" />
        </mxCell>
        <mxCell id="TE3HOqjZIv5zywbFu5FG-4" value="Editar opção&lt;span style=&quot;color: rgba(0, 0, 0, 0); font-family: monospace; font-size: 0px; font-weight: 400; text-align: start; text-wrap-mode: nowrap;&quot;&gt;%3CmxGraphModel%3E%3Croot%3E%3CmxCell%20id%3D%220%22%2F%3E%3CmxCell%20id%3D%221%22%20parent%3D%220%22%2F%3E%3CmxCell%20id%3D%222%22%20value%3D%22Cadastrar%20ativo%26lt%3Bdiv%26gt%3B(abrir%20modal)%26lt%3B%2Fdiv%26gt%3B%22%20style%3D%22rounded%3D0%3BwhiteSpace%3Dwrap%3Bhtml%3D1%3BfontStyle%3D1%3BfillColor%3D%23dae8fc%3BstrokeColor%3D%236c8ebf%3B%22%20vertex%3D%221%22%20parent%3D%221%22%3E%3CmxGeometry%20x%3D%22364%22%20y%3D%2250%22%20width%3D%22120%22%20height%3D%2260%22%20as%3D%22geometry%22%2F%3E%3C%2FmxCell%3E%3C%2Froot%3E%3C%2FmxGraphModel%3E&lt;/span&gt;" style="rounded=0;whiteSpace=wrap;html=1;fontStyle=1;fillColor=#dae8fc;strokeColor=#6c8ebf;" vertex="1" parent="1">
          <mxGeometry x="-273" y="-1120" width="120" height="60" as="geometry" />
        </mxCell>
        <mxCell id="TE3HOqjZIv5zywbFu5FG-17" value="" style="edgeStyle=orthogonalEdgeStyle;rounded=0;orthogonalLoop=1;jettySize=auto;html=1;" edge="1" parent="1" source="TE3HOqjZIv5zywbFu5FG-5" target="TE3HOqjZIv5zywbFu5FG-6">
          <mxGeometry relative="1" as="geometry" />
        </mxCell>
        <mxCell id="TE3HOqjZIv5zywbFu5FG-5" value="Alterar status" style="rounded=0;whiteSpace=wrap;html=1;fontStyle=1;fillColor=#dae8fc;strokeColor=#6c8ebf;" vertex="1" parent="1">
          <mxGeometry x="-413" y="-1010" width="120" height="60" as="geometry" />
        </mxCell>
        <mxCell id="TE3HOqjZIv5zywbFu5FG-18" value="" style="edgeStyle=orthogonalEdgeStyle;rounded=0;orthogonalLoop=1;jettySize=auto;html=1;" edge="1" parent="1" source="TE3HOqjZIv5zywbFu5FG-6" target="TE3HOqjZIv5zywbFu5FG-7">
          <mxGeometry relative="1" as="geometry" />
        </mxCell>
        <mxCell id="TE3HOqjZIv5zywbFu5FG-6" value="Fazer requisição com o comando alterar status" style="rounded=0;whiteSpace=wrap;html=1;fontStyle=1;fillColor=#dae8fc;strokeColor=#6c8ebf;" vertex="1" parent="1">
          <mxGeometry x="-413" y="-910" width="120" height="60" as="geometry" />
        </mxCell>
        <mxCell id="TE3HOqjZIv5zywbFu5FG-19" value="" style="edgeStyle=orthogonalEdgeStyle;rounded=0;orthogonalLoop=1;jettySize=auto;html=1;" edge="1" parent="1" source="TE3HOqjZIv5zywbFu5FG-7" target="TE3HOqjZIv5zywbFu5FG-8">
          <mxGeometry relative="1" as="geometry" />
        </mxCell>
        <mxCell id="TE3HOqjZIv5zywbFu5FG-7" value="Recebimento de valores e tratamento de dados&lt;span style=&quot;color: rgba(0, 0, 0, 0); font-family: monospace; font-size: 0px; font-weight: 400; text-align: start; text-wrap-mode: nowrap;&quot;&gt;%3CmxGraphModel%3E%3Croot%3E%3CmxCell%20id%3D%220%22%2F%3E%3CmxCell%20id%3D%221%22%20parent%3D%220%22%2F%3E%3CmxCell%20id%3D%222%22%20value%3D%22Fazer%20requisi%C3%A7%C3%A3o%20com%20o%20comando%20alterar%20status%22%20style%3D%22rounded%3D0%3BwhiteSpace%3Dwrap%3Bhtml%3D1%3BfontStyle%3D1%3BfillColor%3D%23dae8fc%3BstrokeColor%3D%236c8ebf%3B%22%20vertex%3D%221%22%20parent%3D%221%22%3E%3CmxGeometry%20x%3D%22-620%22%20y%3D%22-900%22%20width%3D%22120%22%20height%3D%2260%22%20as%3D%22geometry%22%2F%3E%3C%2FmxCell%3E%3C%2Froot%3E%3C%2FmxGraphModel%3E&lt;/span&gt;" style="rounded=0;whiteSpace=wrap;html=1;fontStyle=1;fillColor=#dae8fc;strokeColor=#6c8ebf;" vertex="1" parent="1">
          <mxGeometry x="-413" y="-810" width="120" height="60" as="geometry" />
        </mxCell>
        <mxCell id="TE3HOqjZIv5zywbFu5FG-20" value="" style="edgeStyle=orthogonalEdgeStyle;rounded=0;orthogonalLoop=1;jettySize=auto;html=1;" edge="1" parent="1" source="TE3HOqjZIv5zywbFu5FG-8" target="TE3HOqjZIv5zywbFu5FG-11">
          <mxGeometry relative="1" as="geometry" />
        </mxCell>
        <mxCell id="TE3HOqjZIv5zywbFu5FG-8" value="Criar o comando sql" style="rounded=0;whiteSpace=wrap;html=1;fontStyle=1;fillColor=#dae8fc;strokeColor=#6c8ebf;" vertex="1" parent="1">
          <mxGeometry x="-413" y="-710" width="120" height="60" as="geometry" />
        </mxCell>
        <mxCell id="TE3HOqjZIv5zywbFu5FG-27" value="" style="edgeStyle=orthogonalEdgeStyle;rounded=0;orthogonalLoop=1;jettySize=auto;html=1;" edge="1" parent="1" source="TE3HOqjZIv5zywbFu5FG-11" target="TE3HOqjZIv5zywbFu5FG-21">
          <mxGeometry relative="1" as="geometry" />
        </mxCell>
        <mxCell id="TE3HOqjZIv5zywbFu5FG-30" value="" style="edgeStyle=orthogonalEdgeStyle;rounded=0;orthogonalLoop=1;jettySize=auto;html=1;" edge="1" parent="1" source="TE3HOqjZIv5zywbFu5FG-11" target="TE3HOqjZIv5zywbFu5FG-29">
          <mxGeometry relative="1" as="geometry" />
        </mxCell>
        <mxCell id="TE3HOqjZIv5zywbFu5FG-11" value="Execução de comando" style="rhombus;whiteSpace=wrap;html=1;fontStyle=1;fillColor=#fff2cc;strokeColor=#d6b656;" vertex="1" parent="1">
          <mxGeometry x="-393" y="-610" width="80" height="80" as="geometry" />
        </mxCell>
        <mxCell id="TE3HOqjZIv5zywbFu5FG-32" value="" style="edgeStyle=orthogonalEdgeStyle;rounded=0;orthogonalLoop=1;jettySize=auto;html=1;" edge="1" parent="1" source="TE3HOqjZIv5zywbFu5FG-12" target="TE3HOqjZIv5zywbFu5FG-31">
          <mxGeometry relative="1" as="geometry" />
        </mxCell>
        <mxCell id="TE3HOqjZIv5zywbFu5FG-12" value="Cadastrar opção" style="rounded=0;whiteSpace=wrap;html=1;fontStyle=1;fillColor=#dae8fc;strokeColor=#6c8ebf;" vertex="1" parent="1">
          <mxGeometry x="-413" y="-1230" width="120" height="60" as="geometry" />
        </mxCell>
        <mxCell id="TE3HOqjZIv5zywbFu5FG-69" style="edgeStyle=orthogonalEdgeStyle;rounded=0;orthogonalLoop=1;jettySize=auto;html=1;" edge="1" parent="1" source="TE3HOqjZIv5zywbFu5FG-21" target="TE3HOqjZIv5zywbFu5FG-3">
          <mxGeometry relative="1" as="geometry">
            <Array as="points">
              <mxPoint x="-600" y="-570" />
              <mxPoint x="-600" y="-1030" />
              <mxPoint x="-380" y="-1030" />
            </Array>
          </mxGeometry>
        </mxCell>
        <mxCell id="TE3HOqjZIv5zywbFu5FG-21" value="Realizo o cadastro e informo o usuário que o cadastro foi realizado" style="rounded=0;whiteSpace=wrap;html=1;fontStyle=1;fillColor=#d5e8d4;strokeColor=#82b366;" vertex="1" parent="1">
          <mxGeometry x="-553" y="-600" width="120" height="60" as="geometry" />
        </mxCell>
        <mxCell id="TE3HOqjZIv5zywbFu5FG-23" value="Sim" style="rounded=0;whiteSpace=wrap;html=1;fillColor=#d5e8d4;strokeColor=#82b366;fontStyle=1" vertex="1" parent="1">
          <mxGeometry x="-428" y="-594" width="30" height="20" as="geometry" />
        </mxCell>
        <mxCell id="TE3HOqjZIv5zywbFu5FG-28" value="Não" style="rounded=0;whiteSpace=wrap;html=1;fillColor=#f8cecc;strokeColor=#b85450;fontStyle=1" vertex="1" parent="1">
          <mxGeometry x="-313" y="-594" width="30" height="20" as="geometry" />
        </mxCell>
        <mxCell id="TE3HOqjZIv5zywbFu5FG-29" value="passo mensagem de erro" style="whiteSpace=wrap;html=1;fontStyle=1;fillColor=#f8cecc;strokeColor=#b85450;" vertex="1" parent="1">
          <mxGeometry x="-273" y="-600" width="130" height="60" as="geometry" />
        </mxCell>
        <mxCell id="TE3HOqjZIv5zywbFu5FG-44" style="edgeStyle=orthogonalEdgeStyle;rounded=0;orthogonalLoop=1;jettySize=auto;html=1;" edge="1" parent="1" source="TE3HOqjZIv5zywbFu5FG-31" target="TE3HOqjZIv5zywbFu5FG-33">
          <mxGeometry relative="1" as="geometry" />
        </mxCell>
        <mxCell id="TE3HOqjZIv5zywbFu5FG-31" value="Abrir modal" style="rounded=0;whiteSpace=wrap;html=1;fontStyle=1;fillColor=#dae8fc;strokeColor=#6c8ebf;" vertex="1" parent="1">
          <mxGeometry x="-413" y="-1330" width="120" height="60" as="geometry" />
        </mxCell>
        <mxCell id="TE3HOqjZIv5zywbFu5FG-45" value="" style="edgeStyle=orthogonalEdgeStyle;rounded=0;orthogonalLoop=1;jettySize=auto;html=1;" edge="1" parent="1" source="TE3HOqjZIv5zywbFu5FG-33" target="TE3HOqjZIv5zywbFu5FG-42">
          <mxGeometry relative="1" as="geometry" />
        </mxCell>
        <mxCell id="TE3HOqjZIv5zywbFu5FG-33" value="Inputs" style="swimlane;fontStyle=1;childLayout=stackLayout;horizontal=1;startSize=30;horizontalStack=0;resizeParent=1;resizeParentMax=0;resizeLast=0;collapsible=1;marginBottom=0;whiteSpace=wrap;html=1;fillColor=#dae8fc;strokeColor=#6c8ebf;" vertex="1" parent="1">
          <mxGeometry x="-433" y="-1500" width="160" height="130" as="geometry" />
        </mxCell>
        <mxCell id="TE3HOqjZIv5zywbFu5FG-34" value="Descrição (obrigatório)" style="text;strokeColor=none;fillColor=none;align=left;verticalAlign=middle;spacingLeft=4;spacingRight=4;overflow=hidden;points=[[0,0.5],[1,0.5]];portConstraint=eastwest;rotatable=0;whiteSpace=wrap;html=1;fontStyle=1" vertex="1" parent="TE3HOqjZIv5zywbFu5FG-33">
          <mxGeometry y="30" width="160" height="30" as="geometry" />
        </mxCell>
        <mxCell id="TE3HOqjZIv5zywbFu5FG-39" value="Nível (obrigatório)" style="text;strokeColor=none;fillColor=none;align=left;verticalAlign=middle;spacingLeft=4;spacingRight=4;overflow=hidden;points=[[0,0.5],[1,0.5]];portConstraint=eastwest;rotatable=0;whiteSpace=wrap;html=1;fontStyle=1" vertex="1" parent="TE3HOqjZIv5zywbFu5FG-33">
          <mxGeometry y="60" width="160" height="30" as="geometry" />
        </mxCell>
        <mxCell id="TE3HOqjZIv5zywbFu5FG-40" value="URL" style="text;strokeColor=none;fillColor=none;align=left;verticalAlign=middle;spacingLeft=4;spacingRight=4;overflow=hidden;points=[[0,0.5],[1,0.5]];portConstraint=eastwest;rotatable=0;whiteSpace=wrap;html=1;fontStyle=1" vertex="1" parent="TE3HOqjZIv5zywbFu5FG-33">
          <mxGeometry y="90" width="160" height="40" as="geometry" />
        </mxCell>
        <mxCell id="TE3HOqjZIv5zywbFu5FG-50" value="" style="edgeStyle=orthogonalEdgeStyle;rounded=0;orthogonalLoop=1;jettySize=auto;html=1;entryX=0.017;entryY=0.49;entryDx=0;entryDy=0;entryPerimeter=0;" edge="1" parent="1" source="TE3HOqjZIv5zywbFu5FG-42" target="TE3HOqjZIv5zywbFu5FG-47">
          <mxGeometry relative="1" as="geometry" />
        </mxCell>
        <mxCell id="TE3HOqjZIv5zywbFu5FG-51" style="edgeStyle=orthogonalEdgeStyle;rounded=0;orthogonalLoop=1;jettySize=auto;html=1;" edge="1" parent="1" source="TE3HOqjZIv5zywbFu5FG-42" target="TE3HOqjZIv5zywbFu5FG-46">
          <mxGeometry relative="1" as="geometry" />
        </mxCell>
        <mxCell id="TE3HOqjZIv5zywbFu5FG-42" value="Validação de campos" style="rhombus;whiteSpace=wrap;html=1;fontStyle=1;fillColor=#fff2cc;strokeColor=#d6b656;" vertex="1" parent="1">
          <mxGeometry x="-393" y="-1620" width="80" height="80" as="geometry" />
        </mxCell>
        <mxCell id="TE3HOqjZIv5zywbFu5FG-53" value="" style="edgeStyle=orthogonalEdgeStyle;rounded=0;orthogonalLoop=1;jettySize=auto;html=1;" edge="1" parent="1" source="TE3HOqjZIv5zywbFu5FG-46" target="TE3HOqjZIv5zywbFu5FG-52">
          <mxGeometry relative="1" as="geometry" />
        </mxCell>
        <mxCell id="TE3HOqjZIv5zywbFu5FG-46" value="Fazer requisição ajax" style="rounded=0;whiteSpace=wrap;html=1;fontStyle=1;fillColor=#d5e8d4;strokeColor=#82b366;" vertex="1" parent="1">
          <mxGeometry x="-553" y="-1610" width="120" height="60" as="geometry" />
        </mxCell>
        <mxCell id="TE3HOqjZIv5zywbFu5FG-70" style="edgeStyle=orthogonalEdgeStyle;rounded=0;orthogonalLoop=1;jettySize=auto;html=1;entryX=0.826;entryY=0.002;entryDx=0;entryDy=0;entryPerimeter=0;" edge="1" parent="1" source="TE3HOqjZIv5zywbFu5FG-47" target="TE3HOqjZIv5zywbFu5FG-33">
          <mxGeometry relative="1" as="geometry">
            <Array as="points">
              <mxPoint x="-198" y="-1520" />
              <mxPoint x="-300" y="-1520" />
              <mxPoint x="-300" y="-1500" />
            </Array>
          </mxGeometry>
        </mxCell>
        <mxCell id="TE3HOqjZIv5zywbFu5FG-47" value="Mensagem informando o usuario" style="whiteSpace=wrap;html=1;fontStyle=1;fillColor=#f8cecc;strokeColor=#b85450;" vertex="1" parent="1">
          <mxGeometry x="-263" y="-1610" width="130" height="60" as="geometry" />
        </mxCell>
        <mxCell id="TE3HOqjZIv5zywbFu5FG-48" value="Não" style="rounded=0;whiteSpace=wrap;html=1;fillColor=#f8cecc;strokeColor=#b85450;fontStyle=1" vertex="1" parent="1">
          <mxGeometry x="-303" y="-1610" width="30" height="20" as="geometry" />
        </mxCell>
        <mxCell id="TE3HOqjZIv5zywbFu5FG-49" value="Sim" style="rounded=0;whiteSpace=wrap;html=1;fillColor=#d5e8d4;strokeColor=#82b366;fontStyle=1" vertex="1" parent="1">
          <mxGeometry x="-423" y="-1610" width="30" height="20" as="geometry" />
        </mxCell>
        <mxCell id="TE3HOqjZIv5zywbFu5FG-55" value="" style="edgeStyle=orthogonalEdgeStyle;rounded=0;orthogonalLoop=1;jettySize=auto;html=1;" edge="1" parent="1" source="TE3HOqjZIv5zywbFu5FG-52" target="TE3HOqjZIv5zywbFu5FG-54">
          <mxGeometry relative="1" as="geometry" />
        </mxCell>
        <mxCell id="TE3HOqjZIv5zywbFu5FG-52" value="Recebimento de valores e tratamento de dados" style="rounded=0;whiteSpace=wrap;html=1;fontStyle=1;fillColor=#dae8fc;strokeColor=#6c8ebf;" vertex="1" parent="1">
          <mxGeometry x="-553" y="-1710" width="120" height="60" as="geometry" />
        </mxCell>
        <mxCell id="TE3HOqjZIv5zywbFu5FG-57" value="" style="edgeStyle=orthogonalEdgeStyle;rounded=0;orthogonalLoop=1;jettySize=auto;html=1;" edge="1" parent="1" source="TE3HOqjZIv5zywbFu5FG-54" target="TE3HOqjZIv5zywbFu5FG-56">
          <mxGeometry relative="1" as="geometry" />
        </mxCell>
        <mxCell id="TE3HOqjZIv5zywbFu5FG-54" value="Criar comando sql" style="rounded=0;whiteSpace=wrap;html=1;fontStyle=1;fillColor=#dae8fc;strokeColor=#6c8ebf;" vertex="1" parent="1">
          <mxGeometry x="-553" y="-1810" width="120" height="60" as="geometry" />
        </mxCell>
        <mxCell id="TE3HOqjZIv5zywbFu5FG-62" style="edgeStyle=orthogonalEdgeStyle;rounded=0;orthogonalLoop=1;jettySize=auto;html=1;" edge="1" parent="1" source="TE3HOqjZIv5zywbFu5FG-56" target="TE3HOqjZIv5zywbFu5FG-58">
          <mxGeometry relative="1" as="geometry" />
        </mxCell>
        <mxCell id="TE3HOqjZIv5zywbFu5FG-65" style="edgeStyle=orthogonalEdgeStyle;rounded=0;orthogonalLoop=1;jettySize=auto;html=1;" edge="1" parent="1" source="TE3HOqjZIv5zywbFu5FG-56" target="TE3HOqjZIv5zywbFu5FG-64">
          <mxGeometry relative="1" as="geometry" />
        </mxCell>
        <mxCell id="TE3HOqjZIv5zywbFu5FG-56" value="Execução do comando" style="rhombus;whiteSpace=wrap;html=1;fontStyle=1;fillColor=#fff2cc;strokeColor=#d6b656;" vertex="1" parent="1">
          <mxGeometry x="-533" y="-1930" width="80" height="80" as="geometry" />
        </mxCell>
        <mxCell id="TE3HOqjZIv5zywbFu5FG-66" style="edgeStyle=orthogonalEdgeStyle;rounded=0;orthogonalLoop=1;jettySize=auto;html=1;" edge="1" parent="1" source="TE3HOqjZIv5zywbFu5FG-58" target="TE3HOqjZIv5zywbFu5FG-3">
          <mxGeometry relative="1" as="geometry">
            <Array as="points">
              <mxPoint x="-760" y="-1890" />
              <mxPoint x="-760" y="-1150" />
              <mxPoint x="-380" y="-1150" />
            </Array>
          </mxGeometry>
        </mxCell>
        <mxCell id="TE3HOqjZIv5zywbFu5FG-58" value="Realizo o cadastro e informo o usuário que cadastro foi realizado" style="rounded=0;whiteSpace=wrap;html=1;fontStyle=1;fillColor=#d5e8d4;strokeColor=#82b366;" vertex="1" parent="1">
          <mxGeometry x="-693" y="-1920" width="120" height="60" as="geometry" />
        </mxCell>
        <mxCell id="TE3HOqjZIv5zywbFu5FG-59" value="Sim" style="rounded=0;whiteSpace=wrap;html=1;fillColor=#d5e8d4;strokeColor=#82b366;fontStyle=1" vertex="1" parent="1">
          <mxGeometry x="-563" y="-1920" width="30" height="20" as="geometry" />
        </mxCell>
        <mxCell id="TE3HOqjZIv5zywbFu5FG-63" value="Não" style="rounded=0;whiteSpace=wrap;html=1;fillColor=#f8cecc;strokeColor=#b85450;fontStyle=1" vertex="1" parent="1">
          <mxGeometry x="-453" y="-1920" width="30" height="20" as="geometry" />
        </mxCell>
        <mxCell id="TE3HOqjZIv5zywbFu5FG-67" style="edgeStyle=orthogonalEdgeStyle;rounded=0;orthogonalLoop=1;jettySize=auto;html=1;" edge="1" parent="1" source="TE3HOqjZIv5zywbFu5FG-64" target="TE3HOqjZIv5zywbFu5FG-3">
          <mxGeometry relative="1" as="geometry">
            <Array as="points">
              <mxPoint x="-80" y="-1890" />
              <mxPoint x="-80" y="-1150" />
              <mxPoint x="-330" y="-1150" />
            </Array>
          </mxGeometry>
        </mxCell>
        <mxCell id="TE3HOqjZIv5zywbFu5FG-64" value="Mensagem informando o usuario" style="whiteSpace=wrap;html=1;fontStyle=1;fillColor=#f8cecc;strokeColor=#b85450;" vertex="1" parent="1">
          <mxGeometry x="-418" y="-1920" width="130" height="60" as="geometry" />
        </mxCell>
        <mxCell id="TE3HOqjZIv5zywbFu5FG-68" style="edgeStyle=orthogonalEdgeStyle;rounded=0;orthogonalLoop=1;jettySize=auto;html=1;entryX=0.995;entryY=0.118;entryDx=0;entryDy=0;entryPerimeter=0;" edge="1" parent="1" source="TE3HOqjZIv5zywbFu5FG-29" target="TE3HOqjZIv5zywbFu5FG-33">
          <mxGeometry relative="1" as="geometry">
            <Array as="points">
              <mxPoint x="-120" y="-570" />
              <mxPoint x="-120" y="-1485" />
            </Array>
          </mxGeometry>
        </mxCell>
        <mxCell id="TE3HOqjZIv5zywbFu5FG-74" value="" style="edgeStyle=orthogonalEdgeStyle;rounded=0;orthogonalLoop=1;jettySize=auto;html=1;" edge="1" parent="1" source="TE3HOqjZIv5zywbFu5FG-71" target="TE3HOqjZIv5zywbFu5FG-73">
          <mxGeometry relative="1" as="geometry" />
        </mxCell>
        <mxCell id="TE3HOqjZIv5zywbFu5FG-71" value="Buscar informações no banco de dados" style="rounded=0;whiteSpace=wrap;html=1;fontStyle=1;fillColor=#dae8fc;strokeColor=#6c8ebf;" vertex="1" parent="1">
          <mxGeometry x="-110" y="-1120" width="120" height="60" as="geometry" />
        </mxCell>
        <mxCell id="TE3HOqjZIv5zywbFu5FG-76" value="" style="edgeStyle=orthogonalEdgeStyle;rounded=0;orthogonalLoop=1;jettySize=auto;html=1;" edge="1" parent="1" source="TE3HOqjZIv5zywbFu5FG-73" target="TE3HOqjZIv5zywbFu5FG-75">
          <mxGeometry relative="1" as="geometry" />
        </mxCell>
        <mxCell id="TE3HOqjZIv5zywbFu5FG-73" value="Abrir modal e preencher o modal com as informações retornadas" style="rounded=0;whiteSpace=wrap;html=1;fontStyle=1;fillColor=#dae8fc;strokeColor=#6c8ebf;" vertex="1" parent="1">
          <mxGeometry x="50" y="-1120" width="120" height="60" as="geometry" />
        </mxCell>
        <mxCell id="TE3HOqjZIv5zywbFu5FG-78" value="" style="edgeStyle=orthogonalEdgeStyle;rounded=0;orthogonalLoop=1;jettySize=auto;html=1;" edge="1" parent="1" source="TE3HOqjZIv5zywbFu5FG-75" target="TE3HOqjZIv5zywbFu5FG-77">
          <mxGeometry relative="1" as="geometry" />
        </mxCell>
        <mxCell id="TE3HOqjZIv5zywbFu5FG-82" style="edgeStyle=orthogonalEdgeStyle;rounded=0;orthogonalLoop=1;jettySize=auto;html=1;entryX=0;entryY=0.5;entryDx=0;entryDy=0;" edge="1" parent="1" source="TE3HOqjZIv5zywbFu5FG-75" target="TE3HOqjZIv5zywbFu5FG-80">
          <mxGeometry relative="1" as="geometry" />
        </mxCell>
        <mxCell id="TE3HOqjZIv5zywbFu5FG-75" value="Validação de campos" style="rhombus;whiteSpace=wrap;html=1;fontStyle=1;fillColor=#fff2cc;strokeColor=#d6b656;" vertex="1" parent="1">
          <mxGeometry x="210" y="-1130" width="80" height="80" as="geometry" />
        </mxCell>
        <mxCell id="TE3HOqjZIv5zywbFu5FG-77" value="Mensagem de erro informando o usuário" style="whiteSpace=wrap;html=1;fontStyle=1;fillColor=#f8cecc;strokeColor=#b85450;" vertex="1" parent="1">
          <mxGeometry x="185" y="-1220" width="130" height="60" as="geometry" />
        </mxCell>
        <mxCell id="TE3HOqjZIv5zywbFu5FG-79" value="Não" style="rounded=0;whiteSpace=wrap;html=1;fillColor=#f8cecc;strokeColor=#b85450;fontStyle=1" vertex="1" parent="1">
          <mxGeometry x="210" y="-1150" width="30" height="20" as="geometry" />
        </mxCell>
        <mxCell id="TE3HOqjZIv5zywbFu5FG-84" value="" style="edgeStyle=orthogonalEdgeStyle;rounded=0;orthogonalLoop=1;jettySize=auto;html=1;" edge="1" parent="1" source="TE3HOqjZIv5zywbFu5FG-80" target="TE3HOqjZIv5zywbFu5FG-83">
          <mxGeometry relative="1" as="geometry" />
        </mxCell>
        <mxCell id="TE3HOqjZIv5zywbFu5FG-80" value="Fazer requisição ajax" style="rounded=0;whiteSpace=wrap;html=1;fontStyle=1;fillColor=#d5e8d4;strokeColor=#82b366;" vertex="1" parent="1">
          <mxGeometry x="330" y="-1120" width="120" height="60" as="geometry" />
        </mxCell>
        <mxCell id="TE3HOqjZIv5zywbFu5FG-81" value="Sim" style="rounded=0;whiteSpace=wrap;html=1;fillColor=#d5e8d4;strokeColor=#82b366;fontStyle=1" vertex="1" parent="1">
          <mxGeometry x="290" y="-1120" width="30" height="20" as="geometry" />
        </mxCell>
        <mxCell id="TE3HOqjZIv5zywbFu5FG-86" value="" style="edgeStyle=orthogonalEdgeStyle;rounded=0;orthogonalLoop=1;jettySize=auto;html=1;" edge="1" parent="1" source="TE3HOqjZIv5zywbFu5FG-83" target="TE3HOqjZIv5zywbFu5FG-85">
          <mxGeometry relative="1" as="geometry" />
        </mxCell>
        <mxCell id="TE3HOqjZIv5zywbFu5FG-83" value="Recebimento de valores e tratamento dos dados" style="rounded=0;whiteSpace=wrap;html=1;fontStyle=1;fillColor=#dae8fc;strokeColor=#6c8ebf;" vertex="1" parent="1">
          <mxGeometry x="490" y="-1120" width="120" height="60" as="geometry" />
        </mxCell>
        <mxCell id="TE3HOqjZIv5zywbFu5FG-88" value="" style="edgeStyle=orthogonalEdgeStyle;rounded=0;orthogonalLoop=1;jettySize=auto;html=1;" edge="1" parent="1" source="TE3HOqjZIv5zywbFu5FG-85" target="TE3HOqjZIv5zywbFu5FG-87">
          <mxGeometry relative="1" as="geometry" />
        </mxCell>
        <mxCell id="TE3HOqjZIv5zywbFu5FG-85" value="Criar comando SQL" style="rounded=0;whiteSpace=wrap;html=1;fontStyle=1;fillColor=#dae8fc;strokeColor=#6c8ebf;" vertex="1" parent="1">
          <mxGeometry x="650" y="-1120" width="120" height="60" as="geometry" />
        </mxCell>
        <mxCell id="TE3HOqjZIv5zywbFu5FG-91" value="" style="edgeStyle=orthogonalEdgeStyle;rounded=0;orthogonalLoop=1;jettySize=auto;html=1;" edge="1" parent="1" source="TE3HOqjZIv5zywbFu5FG-87" target="TE3HOqjZIv5zywbFu5FG-89">
          <mxGeometry relative="1" as="geometry" />
        </mxCell>
        <mxCell id="TE3HOqjZIv5zywbFu5FG-94" value="" style="edgeStyle=orthogonalEdgeStyle;rounded=0;orthogonalLoop=1;jettySize=auto;html=1;" edge="1" parent="1" source="TE3HOqjZIv5zywbFu5FG-87" target="TE3HOqjZIv5zywbFu5FG-92">
          <mxGeometry relative="1" as="geometry" />
        </mxCell>
        <mxCell id="TE3HOqjZIv5zywbFu5FG-87" value="Execução do comando" style="rhombus;whiteSpace=wrap;html=1;fontStyle=1;fillColor=#fff2cc;strokeColor=#d6b656;" vertex="1" parent="1">
          <mxGeometry x="670" y="-1020" width="80" height="80" as="geometry" />
        </mxCell>
        <mxCell id="TE3HOqjZIv5zywbFu5FG-95" style="edgeStyle=orthogonalEdgeStyle;rounded=0;orthogonalLoop=1;jettySize=auto;html=1;" edge="1" parent="1" source="TE3HOqjZIv5zywbFu5FG-89" target="TE3HOqjZIv5zywbFu5FG-3">
          <mxGeometry relative="1" as="geometry">
            <Array as="points">
              <mxPoint x="570" y="-1030" />
              <mxPoint x="-330" y="-1030" />
            </Array>
          </mxGeometry>
        </mxCell>
        <mxCell id="TE3HOqjZIv5zywbFu5FG-89" value="Realizo o cadastro e informo o usuário que o cadastro foi realizado" style="rounded=0;whiteSpace=wrap;html=1;fontStyle=1;fillColor=#d5e8d4;strokeColor=#82b366;" vertex="1" parent="1">
          <mxGeometry x="510" y="-1010" width="120" height="60" as="geometry" />
        </mxCell>
        <mxCell id="TE3HOqjZIv5zywbFu5FG-90" value="Sim" style="rounded=0;whiteSpace=wrap;html=1;fillColor=#d5e8d4;strokeColor=#82b366;fontStyle=1" vertex="1" parent="1">
          <mxGeometry x="640" y="-1010" width="30" height="20" as="geometry" />
        </mxCell>
        <mxCell id="TE3HOqjZIv5zywbFu5FG-92" value="Passo a mensagem de erro" style="whiteSpace=wrap;html=1;fontStyle=1;fillColor=#f8cecc;strokeColor=#b85450;" vertex="1" parent="1">
          <mxGeometry x="790" y="-1010" width="130" height="60" as="geometry" />
        </mxCell>
        <mxCell id="TE3HOqjZIv5zywbFu5FG-93" value="Não" style="rounded=0;whiteSpace=wrap;html=1;fillColor=#f8cecc;strokeColor=#b85450;fontStyle=1" vertex="1" parent="1">
          <mxGeometry x="750" y="-1010" width="30" height="20" as="geometry" />
        </mxCell>
      </root>
    </mxGraphModel>
  </diagram>
</mxfile>
